<svg width="30" height="30" viewBox="0 0 30 30" fill="none" xmlns="http://www.w3.org/2000/svg">
<path fill-rule="evenodd" clip-rule="evenodd" d="M7 8H23C23.5523 8 24 8.44772 24 9C24 9.55228 23.5523 10 23 10H7C6.44772 10 6 9.55228 6 9C6 8.44772 6.44772 8 7 8ZM7 14H23C23.5523 14 24 14.4477 24 15C24 15.5523 23.5523 16 23 16H7C6.44772 16 6 15.5523 6 15C6 14.4477 6.44772 14 7 14ZM7 20H23C23.5523 20 24 20.4477 24 21C24 21.5523 23.5523 22 23 22H7C6.44772 22 6 21.5523 6 21C6 20.4477 6.44772 20 7 20Z" fill="white"/>
</svg>
